<?xml version="1.0" encoding="iso-8859-1"?>
<!-- Generator: Adobe Illustrator 19.1.0, SVG Export Plug-In . SVG Version: 6.00 Build 0)  -->
<svg version="1.1" id="Capa_1" xmlns="http://www.w3.org/2000/svg" xmlns:xlink="http://www.w3.org/1999/xlink" x="0px" y="0px"
	 viewBox="0 0 432.246 432.246" style="enable-background:new 0 0 432.246 432.246;" xml:space="preserve">
<g>
	<path style="fill:#999999;" d="M283.27,338.283h-4.094v11.437h12.037V239.029H141.032V349.72h12.036v-11.437h-4.094
		c-2.485,0-4.5-2.015-4.5-4.5c0-2.485,2.015-4.5,4.5-4.5H283.27c2.485,0,4.5,2.015,4.5,4.5
		C287.77,336.269,285.755,338.283,283.27,338.283z"/>
	<rect x="282.719" y="152.15" style="fill:#CCB683;" width="15.838" height="48.54"/>
	<polygon style="fill:#BB844C;" points="307.557,152.15 307.557,193.129 343.085,152.15 	"/>
	<rect x="257.881" y="152.15" style="fill:#BB844C;" width="15.838" height="48.54"/>
	<rect x="233.042" y="152.15" style="fill:#CCB683;" width="15.839" height="48.54"/>
	<rect x="249.899" y="338.283" style="fill:#999999;" width="20.277" height="11.436"/>
	<rect x="191.346" y="338.283" style="fill:#999999;" width="20.277" height="11.436"/>
	<rect x="162.069" y="338.283" style="fill:#999999;" width="20.277" height="11.436"/>
	<rect x="220.623" y="338.283" style="fill:#999999;" width="20.275" height="11.436"/>
	<rect x="37.196" y="100.939" style="fill:#BB844C;" width="19.195" height="7.687"/>
	<rect x="83.804" y="358.72" style="fill:#BB844C;" width="264.638" height="12.866"/>
	<rect x="208.203" y="152.15" style="fill:#BB844C;" width="15.839" height="48.54"/>
	<polygon style="fill:#BB844C;" points="124.689,193.129 124.689,152.15 89.16,152.15 	"/>
	<rect x="30.29" y="341.458" style="fill:#BB844C;" width="44.514" height="30.128"/>
	<rect x="37.196" y="117.625" style="fill:#CCB683;" width="19.195" height="214.833"/>
	<rect x="183.365" y="152.15" style="fill:#CCB683;" width="15.838" height="48.54"/>
	<path style="fill:#BB844C;" d="M122.804,349.72h9.229V234.529c0-2.485,2.015-4.5,4.5-4.5h159.181c2.485,0,4.5,2.015,4.5,4.5V349.72
		h9.229V209.69H122.804V349.72z"/>
	<rect x="133.689" y="152.15" style="fill:#CCB683;" width="15.839" height="48.54"/>
	<rect x="158.528" y="152.15" style="fill:#BB844C;" width="15.838" height="48.54"/>
	<path style="fill:#D19B6F;" d="M357.442,332.458h9.413v-231.52H65.391v231.52h9.413V147.65c0-2.485,2.015-4.5,4.5-4.5h273.638
		c2.485,0,4.5,2.015,4.5,4.5V332.458z"/>
	<polygon style="fill:#CCB683;" points="348.442,200.69 348.442,159.71 312.914,200.69 	"/>
	<rect x="357.442" y="341.458" style="fill:#BB844C;" width="44.514" height="30.128"/>
	<rect x="318.442" y="259.366" style="fill:#BB844C;" width="30" height="15.838"/>
	<rect x="318.442" y="209.69" style="fill:#BB844C;" width="30" height="15.839"/>
	<rect x="318.442" y="234.529" style="fill:#CCB683;" width="30" height="15.838"/>
	<polygon style="fill:#BB844C;" points="23.713,70.072 408.533,70.072 417.358,60.659 14.887,60.659 	"/>
	<rect x="375.855" y="117.625" style="fill:#CCB683;" width="19.195" height="214.833"/>
	<rect x="26.263" y="79.072" style="fill:#CCB683;" width="379.72" height="12.866"/>
	<rect x="375.855" y="100.939" style="fill:#BB844C;" width="19.195" height="7.687"/>
	<polygon style="fill:#CCB683;" points="83.804,200.69 119.331,200.69 83.804,159.71 	"/>
	<rect x="83.804" y="284.204" style="fill:#CCB683;" width="30" height="15.839"/>
	<rect x="83.804" y="234.529" style="fill:#CCB683;" width="30" height="15.838"/>
	<rect x="83.804" y="259.366" style="fill:#BB844C;" width="30" height="15.838"/>
	<rect x="318.442" y="284.204" style="fill:#CCB683;" width="30" height="15.839"/>
	<rect x="83.804" y="209.69" style="fill:#BB844C;" width="30" height="15.839"/>
	<rect x="318.442" y="333.882" style="fill:#CCB683;" width="30" height="15.838"/>
	<rect x="83.804" y="309.043" style="fill:#BB844C;" width="30" height="15.839"/>
	<rect x="318.442" y="309.043" style="fill:#BB844C;" width="30" height="15.839"/>
	<rect x="83.804" y="333.882" style="fill:#CCB683;" width="30" height="15.838"/>
	<path style="fill:#7C5F53;" d="M427.745,51.659H4.5c-1.794,0-3.416,1.066-4.129,2.711c-0.713,1.646-0.38,3.559,0.847,4.867
		l16.045,17.114v20.087c0,2.485,2.015,4.5,4.5,4.5h6.433v231.52H25.79c-2.485,0-4.5,2.015-4.5,4.5v39.128c0,2.485,2.015,4.5,4.5,4.5
		h380.665c2.485,0,4.5-2.015,4.5-4.5v-39.128c0-2.485-2.015-4.5-4.5-4.5h-2.405v-231.52h6.433c2.485,0,4.5-2.015,4.5-4.5V76.352
		l16.045-17.114c1.227-1.309,1.56-3.221,0.847-4.867C431.161,52.725,429.539,51.659,427.745,51.659z M74.804,371.586H30.29v-30.128
		h44.514V371.586z M56.391,117.625v214.833H37.196V117.625H56.391z M37.196,108.625v-7.687h19.195v7.687H37.196z M348.442,371.586
		H83.804V358.72h264.638V371.586z M309.442,209.69v140.03h-9.229V234.529c0-2.485-2.015-4.5-4.5-4.5H136.532
		c-2.485,0-4.5,2.015-4.5,4.5V349.72h-9.229V209.69H309.442z M133.689,200.69v-48.54h15.839v48.54H133.689z M158.528,200.69v-48.54
		h15.838v48.54H158.528z M183.365,200.69v-48.54h15.838v48.54H183.365z M208.203,200.69v-48.54h15.839v48.54H208.203z
		 M233.042,200.69v-48.54h15.839v48.54H233.042z M257.881,200.69v-48.54h15.838v48.54H257.881z M282.719,200.69v-48.54h15.838v48.54
		H282.719z M307.557,193.129V152.15h35.528L307.557,193.129z M283.27,329.283H148.975c-2.485,0-4.5,2.015-4.5,4.5
		c0,2.485,2.015,4.5,4.5,4.5h4.094v11.437h-12.036V239.029h150.181V349.72h-12.037v-11.437h4.094c2.485,0,4.5-2.015,4.5-4.5
		C287.77,331.298,285.755,329.283,283.27,329.283z M270.176,338.283v11.437h-20.277v-11.437H270.176z M240.899,338.283v11.437
		h-20.275v-11.437H240.899z M211.623,338.283v11.437h-20.277v-11.437H211.623z M182.346,338.283v11.437h-20.277v-11.437H182.346z
		 M124.689,193.129L89.16,152.15h35.529V193.129z M119.331,200.69H83.804V159.71L119.331,200.69z M113.804,209.69v15.839h-30V209.69
		H113.804z M113.804,234.529v15.838h-30v-15.838H113.804z M113.804,259.366v15.838h-30v-15.838H113.804z M113.804,284.204v15.839
		h-30v-15.839H113.804z M113.804,309.043v15.839h-30v-15.839H113.804z M113.804,333.882v15.838h-30v-15.838H113.804z
		 M348.442,349.72h-30v-15.838h30V349.72z M348.442,324.882h-30v-15.839h30V324.882z M348.442,300.043h-30v-15.839h30V300.043z
		 M348.442,275.204h-30v-15.838h30V275.204z M348.442,250.366h-30v-15.838h30V250.366z M348.442,225.529h-30V209.69h30V225.529z
		 M348.442,200.69h-35.527l35.527-40.979V200.69z M352.942,143.15H79.304c-2.485,0-4.5,2.015-4.5,4.5v184.809h-9.413v-231.52
		h301.464v231.52h-9.413V147.65C357.442,145.164,355.427,143.15,352.942,143.15z M401.955,371.586h-44.514v-30.128h44.514V371.586z
		 M395.05,117.625v214.833h-19.195V117.625H395.05z M375.855,108.625v-7.687h19.195v7.687H375.855z M405.983,91.939H26.263V79.072
		h379.72V91.939z M408.533,70.072H23.713l-8.825-9.413h402.471L408.533,70.072z"/>
</g>
<g>
</g>
<g>
</g>
<g>
</g>
<g>
</g>
<g>
</g>
<g>
</g>
<g>
</g>
<g>
</g>
<g>
</g>
<g>
</g>
<g>
</g>
<g>
</g>
<g>
</g>
<g>
</g>
<g>
</g>
</svg>
