<svg height="57" viewBox="0 0 64 64" width="55" xmlns="http://www.w3.org/2000/svg"><g id="Living_room" data-name="Living room"><g fill="#57a4ff"><path d="m7 34h6v12h-6z"/><path d="m35 34h6v12h-6z"/><path d="m13 39h22v7h-22z"/><path d="m15 29h18a2 2 0 0 1 2 2v8a0 0 0 0 1 0 0h-22a0 0 0 0 1 0 0v-8a2 2 0 0 1 2-2z"/><path d="m46 45h10v3h-10z"/></g><path d="m62 48h-5v-3a1 1 0 0 0 -1-1h-4v-15h5a1 1 0 0 0 1-1.077l-1-13a1 1 0 0 0 -1-.923h-10a1 1 0 0 0 -1 .923l-1 13a1 1 0 0 0 1 1.077h5v15h-4a1 1 0 0 0 -1 1v3h-4v-1a1 1 0 0 0 1-1v-12a1 1 0 0 0 -1-1h-5v-2a3 3 0 0 0 -3-3h-18a3 3 0 0 0 -3 3v2h-5a1 1 0 0 0 -1 1v12a1 1 0 0 0 1 1v1h-5a1 1 0 0 0 0 2h60a1 1 0 0 0 0-2zm-15.92-21 .846-11h8.148l.846 11zm.92 19h8v1h-8zm-7-11v10h-4v-10zm-6 10h-20v-5h20zm2 2v1h-24v-1zm-22-16a1 1 0 0 1 1-1h18a1 1 0 0 1 1 1v7h-20zm-6 4h4v10h-4zm1 13v-1h1v1zm29 0v-1h1v1z" fill="#004fac"/><path d="m16 33h5a1 1 0 0 0 0-2h-5a1 1 0 0 0 0 2z" fill="#004fac"/><path d="m24 33h1a1 1 0 0 0 0-2h-1a1 1 0 0 0 0 2z" fill="#004fac"/></g></svg>
