<svg height="38pt" viewBox="0 0 512 512" width="38pt" xmlns="http://www.w3.org/2000/svg"><path d="m512 0v391l-22.101562 15-22.097657 15h-76.800781v-60h-90v-60h-90v-60h-90v-60h-102.101562l-18.898438-30v-151zm0 0" fill="#00aadf"/><path d="m512 0v391l-44.199219 30h-76.800781v-60h-90v-60h-45v-301zm0 0" fill="#007a9f"/><path d="m391 121v38.789062l-79.394531-79.394531-21.210938 21.210938 79.394531 79.394531h-38.789062v30h90v-90zm0 0" fill="#c5d3dd"/><path d="m421 391v-60h-90v-60h-90v-60h-90v-60h-151v361h512v-121zm0 0" fill="#deecf1"/><path d="m512 391v121h-256v-241h75v60h90v60zm0 0" fill="#c5d3dd"/></svg>
